<svg width="50" height="51" viewBox="0 0 50 51" fill="none" xmlns="http://www.w3.org/2000/svg">
<mask id="mask0_10597_49262" style="mask-type:luminance" maskUnits="userSpaceOnUse" x="0" y="0" width="50" height="51">
<path d="M50 0.0350342H0V50.035H50V0.0350342Z" fill="white"/>
</mask>
<g mask="url(#mask0_10597_49262)">
<path d="M25 50.035C38.8071 50.035 50 38.8421 50 25.035C50 11.228 38.8071 0.0350342 25 0.0350342C11.1929 0.0350342 0 11.228 0 25.035C0 38.8421 11.1929 50.035 25 50.035Z" fill="#EE9500"/>
<path d="M23.8907 11.148C23.4621 10.9509 22.9724 11.062 22.6405 11.4276L15.7034 19.195H10.358C9.72002 19.195 9.21094 19.7649 9.21094 20.4711V29.6937C9.21094 30.3998 9.72325 30.9698 10.358 30.9698H15.6776L22.647 38.7371C22.8661 38.9809 23.1625 39.1135 23.4589 39.1135C23.6039 39.1135 23.7586 39.0812 23.8971 39.0167C24.3289 38.8196 24.606 38.3536 24.606 37.8375V12.3273C24.606 11.8111 24.3224 11.3452 23.8907 11.148Z" fill="white"/>
<path d="M35.8415 25.049C35.8415 20.2638 33.2864 15.9554 29.3264 14.0664C28.7433 13.7904 28.0666 14.0879 27.8185 14.7367C27.5672 15.3855 27.8379 16.1346 28.421 16.4142C31.5368 17.8981 33.5474 21.289 33.5474 25.049C33.5474 28.7947 31.5465 32.1748 28.4468 33.6623C27.8669 33.9419 27.5962 34.6946 27.8475 35.3398C28.0344 35.8237 28.4565 36.1104 28.9044 36.1104C29.0526 36.1104 29.2072 36.0782 29.3554 36.0065C33.2993 34.1139 35.8415 29.8127 35.8415 25.049Z" fill="white"/>
<path d="M30.7639 25.0432C30.7639 22.5162 29.4138 20.2437 27.3195 19.2544C26.7395 18.9855 26.0629 19.2831 25.818 19.9318C25.5667 20.5806 25.8406 21.3297 26.4238 21.6057C27.6675 22.19 28.4698 23.5413 28.4698 25.0396C28.4698 26.5235 27.6771 27.8641 26.4495 28.4591C25.8663 28.7387 25.6021 29.4914 25.8502 30.1366C26.0339 30.6241 26.456 30.9108 26.9006 30.9108C27.0521 30.9108 27.2099 30.8786 27.3582 30.8033C29.4267 29.8068 30.7639 27.5451 30.7639 25.0432Z" fill="white"/>
<path d="M31.2815 9.00767C30.6983 8.72809 30.0185 9.02918 29.7736 9.67795C29.5223 10.3267 29.7929 11.0759 30.3761 11.3555C35.3091 13.7104 38.4957 19.0834 38.4957 25.0514C38.4957 30.9944 35.322 36.3566 30.4051 38.7187C29.8219 38.9983 29.5513 39.7475 29.8026 40.3962C29.9927 40.8801 30.4116 41.1669 30.8562 41.1669C31.0077 41.1669 31.1655 41.1346 31.3137 41.0629C37.0684 38.2958 40.7898 32.0123 40.7898 25.0479C40.7898 18.0619 37.0587 11.7641 31.2815 9.00767Z" fill="white"/>
</g>
</svg>

