<?xml version="1.0" standalone="no"?>
<!DOCTYPE svg PUBLIC "-//W3C//DTD SVG 20010904//EN"
 "http://www.w3.org/TR/2001/REC-SVG-20010904/DTD/svg10.dtd">
<svg version="1.0" xmlns="http://www.w3.org/2000/svg"
 width="1051.000000pt" height="600.000000pt" viewBox="0 0 1051.000000 600.000000"
 preserveAspectRatio="xMidYMid meet">

<g transform="translate(0.000000,600.000000) scale(0.100000,-0.100000)"
fill="#000000" stroke="none">
<path d="M3772 4444 l3 -1228 320 -188 c176 -104 332 -195 348 -204 l27 -15 0
1229 0 1228 -341 199 c-187 110 -345 202 -350 203 -6 2 -8 -465 -7 -1224z"/>
<path d="M6365 5471 l-340 -199 -3 -1226 c-1 -674 1 -1226 5 -1226 3 0 158 89
344 198 l338 197 1 1228 c0 675 -1 1227 -3 1227 -1 0 -155 -90 -342 -199z"/>
<path d="M4652 3098 l3 -412 294 -173 295 -172 40 24 c23 14 155 91 293 172
l253 148 0 413 0 414 -32 -20 c-18 -11 -150 -88 -292 -172 -217 -126 -263
-150 -280 -142 -12 5 -144 82 -295 171 -150 88 -275 161 -277 161 -3 0 -3
-185 -2 -412z"/>
<path d="M2772 1578 l3 -483 29 -63 c36 -77 104 -142 184 -173 51 -20 79 -23
271 -27 233 -4 303 4 382 43 64 33 105 69 135 121 52 88 54 113 54 607 l0 457
-135 0 -134 0 -3 -433 c-3 -400 -4 -435 -21 -461 -31 -46 -70 -56 -232 -56
-155 0 -193 8 -230 50 -19 21 -20 38 -23 461 l-3 439 -140 0 -140 0 3 -482z"/>
<path d="M4470 1637 c0 -262 4 -446 11 -482 22 -118 98 -223 199 -275 82 -42
156 -50 463 -50 l287 0 0 139 0 140 -287 3 c-253 3 -292 5 -320 21 -70 37 -68
24 -71 499 l-3 428 -139 0 -140 0 0 -423z"/>
<path d="M5910 1920 l0 -140 170 0 170 0 0 -475 0 -475 140 0 140 0 0 475 0
475 170 0 170 0 0 140 0 140 -480 0 -480 0 0 -140z"/>
<path d="M7440 1445 l0 -615 140 0 140 0 0 615 0 615 -140 0 -140 0 0 -615z"/>
</g>
</svg>
