<svg width="50" height="50" viewBox="0 0 50 50" fill="none" xmlns="http://www.w3.org/2000/svg">
<path d="M25 50C38.8071 50 50 38.8071 50 25C50 11.1929 38.8071 0 25 0C11.1929 0 0 11.1929 0 25C0 38.8071 11.1929 50 25 50Z" fill="#CCCCCC"/>
<path d="M25 50C38.8071 50 50 38.8071 50 25C50 11.1929 38.8071 0 25 0C11.1929 0 0 11.1929 0 25C0 38.8071 11.1929 50 25 50Z" fill="#CCCCCC"/>
<path d="M35.3368 25.6777C35.3368 25.0734 34.8338 24.601 34.1633 24.601C33.4926 24.601 32.9896 25.0624 32.9896 25.6777C32.9896 29.8523 29.2892 33.2471 24.7384 33.2471C20.1878 33.2471 16.4873 29.8523 16.4873 25.6777C16.4873 25.0734 15.9843 24.601 15.3137 24.601C14.643 24.601 14.164 25.0734 14.164 25.6777C14.164 30.6433 18.2118 34.8181 23.5888 35.3563V38.2128H19.3374C18.6788 38.2128 18.1638 38.6742 18.1638 39.2894C18.1638 39.9046 18.6668 40.366 19.3374 40.366H30.1634C30.8221 40.366 31.337 39.9046 31.337 39.2894C31.337 38.6742 30.834 38.2128 30.1634 38.2128H25.924V35.3563C31.2891 34.8181 35.3368 30.6433 35.3368 25.6777Z" fill="white"/>
<path d="M24.7555 10.0014C21.1747 10.0014 18.2527 12.682 18.2527 15.9668V25.6456C18.2527 28.9633 21.1747 31.611 24.7555 31.644C28.3361 31.644 31.2582 28.9633 31.2582 25.6785V15.9668C31.2582 12.682 28.3361 10.0014 24.7555 10.0014Z" fill="white"/>
</svg>

