<svg width="50" height="50" viewBox="0 0 50 50" fill="none" xmlns="http://www.w3.org/2000/svg">
<path d="M25 50C38.8071 50 50 38.8071 50 25C50 11.1929 38.8071 0 25 0C11.1929 0 0 11.1929 0 25C0 38.8071 11.1929 50 25 50Z" fill="#CCCCCC"/>
<path d="M25 50C38.8071 50 50 38.8071 50 25C50 11.1929 38.8071 0 25 0C11.1929 0 0 11.1929 0 25C0 38.8071 11.1929 50 25 50Z" fill="#CCCCCC"/>
<path d="M35.1579 22.6101C36.4912 23.3799 36.4912 25.3044 35.1579 26.0742L20.4342 34.5749C19.1009 35.3447 17.4342 34.3825 17.4342 32.8429L17.4342 15.8414C17.4342 14.3018 19.1009 13.3396 20.4342 14.1094L35.1579 22.6101Z" fill="white"/>
</svg>

